<?xml version="1.0" standalone="no"?>
<!DOCTYPE svg PUBLIC "-//W3C//DTD SVG 20010904//EN"
 "http://www.w3.org/TR/2001/REC-SVG-20010904/DTD/svg10.dtd">
<svg version="1.0" xmlns="http://www.w3.org/2000/svg"
 width="64.000000pt" height="64.000000pt" viewBox="0 0 64.000000 64.000000"
 preserveAspectRatio="xMidYMid meet">

<g transform="translate(0.000000,64.000000) scale(0.100000,-0.100000)"
fill="#000000" stroke="none">
<path d="M264 581 c-19 -12 -37 -34 -43 -54 -15 -46 -8 -63 120 -284 103 -177
126 -203 181 -203 38 0 85 35 97 73 15 46 10 58 -119 281 -104 180 -127 206
-182 206 -13 0 -37 -9 -54 -19z"/>
<path d="M150 413 c-18 -32 -43 -76 -56 -98 l-23 -40 42 3 c53 4 99 -24 125
-75 l20 -38 22 45 22 46 -60 107 -60 108 -32 -58z"/>
<path d="M57 230 c-38 -30 -52 -80 -33 -123 15 -37 59 -67 96 -67 37 0 81 30
96 67 29 68 -21 143 -96 143 -22 0 -48 -8 -63 -20z"/>
</g>
</svg>
